<?xml version="1.0" standalone="no"?>
<!DOCTYPE svg PUBLIC "-//W3C//DTD SVG 20010904//EN"
 "http://www.w3.org/TR/2001/REC-SVG-20010904/DTD/svg10.dtd">
<svg version="1.0" xmlns="http://www.w3.org/2000/svg"
 width="1914.000000pt" height="817.000000pt" viewBox="0 0 1914.000000 817.000000"
 preserveAspectRatio="xMidYMid meet">

<g transform="translate(0.000000,817.000000) scale(0.100000,-0.100000)"
fill="#000000" stroke="none">
<path d="M15354 5879 c-4 -6 -9 -51 -12 -100 l-5 -89 -612 0 -613 0 -5 21 c-4
13 -12 20 -24 17 -17 -3 -18 -35 -18 -716 l0 -713 643 1 642 1 0 -326 0 -325
-636 0 c-349 0 -640 -2 -645 -5 -5 -4 -9 -85 -9 -186 0 -157 2 -180 16 -186
10 -4 22 0 29 10 11 15 90 17 824 23 778 7 812 7 825 -11 8 -11 20 -16 30 -12
15 6 16 109 16 1307 l0 1300 -219 0 c-151 0 -222 -3 -227 -11z m389 -52 c2 -7
5 -565 6 -1240 l2 -1227 -408 0 c-224 0 -594 -3 -820 -7 l-413 -6 0 126 0 126
635 3 c552 3 637 5 645 18 11 17 14 610 4 684 l-7 46 -638 0 -639 0 0 645 0
645 614 0 c337 0 628 3 645 6 l31 7 0 93 0 94 169 0 c127 0 170 -3 174 -13z"/>
<path d="M14445 5347 c-3 -6 -4 -170 -3 -362 l3 -350 468 0 469 0 -1 354 c-1
195 -4 358 -7 363 -3 4 -212 8 -465 8 -360 0 -461 -3 -464 -13z m885 -352 l0
-315 -420 0 -420 0 0 315 0 315 420 0 420 0 0 -315z"/>
<path d="M13057 5664 c-4 -4 -7 -227 -7 -496 l0 -488 -494 0 -494 0 -16 -24
c-14 -22 -16 -100 -18 -664 l-3 -640 50 -6 c66 -8 1249 -8 1298 0 l37 7 -2
1156 -3 1156 -171 3 c-93 1 -173 -1 -177 -4z m303 -1158 l0 -1115 -640 -1
-640 0 0 620 0 620 510 0 510 0 0 495 0 495 130 0 130 0 0 -1114z"/>
<path d="M13050 4430 c0 -6 -134 -11 -367 -12 l-368 -3 -5 -395 c-3 -235 -1
-400 4 -408 5 -7 19 -11 30 -8 12 3 186 6 389 7 l367 2 0 366 c0 201 3 383 6
404 6 33 4 37 -15 37 -11 0 -21 5 -21 10 0 6 -4 10 -10 10 -5 0 -10 -4 -10
-10z m0 -416 l0 -351 -345 -2 -345 -2 0 356 0 357 345 -4 345 -3 0 -351z"/>
<path d="M8894 5615 c-2 -5 -3 -530 -2 -1165 l3 -1154 145 2 c80 1 173 5 208
8 l62 6 -2 1155 -3 1155 -204 1 c-128 1 -205 -2 -207 -8z m366 -1155 l0 -1110
-160 0 -160 0 0 1088 c0 598 3 1097 6 1110 6 22 9 22 160 22 l153 0 1 -1110z"/>
<path d="M1186 5549 c-3 -17 -6 -512 -6 -1100 0 -1062 0 -1069 20 -1069 13 0
20 -7 20 -20 0 -19 7 -20 105 -20 l105 0 0 25 c0 16 6 25 15 25 13 0 15 47 15
360 0 324 2 359 16 353 11 -4 38 16 84 62 l69 68 113 -174 c342 -524 444 -681
453 -699 9 -19 18 -20 150 -18 116 3 140 6 143 18 1 9 -23 54 -54 100 -79 118
-604 960 -604 968 0 4 124 131 275 282 l275 275 0 58 c0 46 -7 72 -35 127
l-35 70 -43 0 -42 0 -382 -382 -383 -383 0 533 c0 466 -2 532 -15 532 -8 0
-15 9 -15 20 0 19 -7 20 -119 20 l-118 0 -7 -31z m224 -1089 l0 -1070 -90 0
-90 0 0 1070 0 1070 90 0 90 0 0 -1070z m904 662 l44 -89 -449 -449 -449 -449
0 135 0 135 402 402 c222 222 404 403 405 403 2 0 23 -40 47 -88z m-240 -1185
c146 -235 266 -432 266 -437 0 -6 5 -10 10 -10 6 0 10 -9 10 -21 0 -11 4 -18
9 -15 5 3 18 -10 30 -29 l20 -35 -79 0 c-53 0 -80 4 -80 11 0 8 -4 8 -13 1 -9
-8 -78 90 -292 420 -154 237 -282 436 -284 441 -2 5 23 36 55 68 46 46 61 56
70 46 7 -6 132 -205 278 -440z"/>
<path d="M6195 5259 c-4 -11 451 -1887 470 -1936 6 -18 34 -16 41 2 5 12 32
15 153 15 102 0 152 4 163 13 12 8 62 206 166 647 99 419 152 627 156 610 3
-14 60 -303 126 -643 67 -340 125 -629 130 -643 l10 -24 167 2 167 3 8 30 c5
17 116 438 248 937 131 499 245 916 252 927 23 38 2 43 -184 43 l-173 0 -156
-588 c-85 -324 -157 -595 -160 -602 -2 -7 -55 213 -117 490 -63 277 -126 548
-141 603 l-28 100 -151 3 -151 3 -21 -73 c-12 -40 -25 -84 -30 -98 -5 -14 -68
-257 -140 -540 -72 -283 -134 -523 -138 -533 -4 -11 -65 211 -166 610 -88 345
-163 632 -167 637 -4 5 -80 11 -168 14 -132 4 -161 2 -166 -9z m304 -71 c5
-18 81 -314 168 -657 100 -398 153 -626 146 -628 -7 -3 -8 -15 -3 -36 5 -18
13 -48 17 -67 5 -19 16 -36 25 -38 13 -3 17 8 21 55 4 50 285 1163 304 1203 4
8 7 20 8 26 0 6 8 22 18 37 9 14 17 30 17 34 0 4 5 25 11 46 l10 37 109 0 108
0 6 -27 c2 -16 8 -50 11 -78 4 -27 11 -52 16 -56 8 -4 242 -1023 250 -1089 2
-14 0 -31 -4 -37 -10 -16 0 -33 17 -33 8 0 13 -8 12 -17 0 -10 6 -18 14 -18
11 0 15 12 16 40 1 22 77 323 168 668 91 346 166 631 166 633 0 2 59 4 131 4
119 0 130 -1 125 -17 -36 -121 -466 -1776 -466 -1796 l0 -27 -140 0 -139 0 -7
38 c-4 20 -64 327 -133 682 l-126 645 -35 3 -35 3 -119 -508 c-205 -879 -185
-803 -212 -803 -13 0 -24 -5 -24 -10 0 -7 -45 -10 -127 -8 l-127 3 -223 905
c-122 498 -223 908 -223 913 0 4 54 7 119 7 l119 0 11 -32z"/>
<path d="M2960 5181 c0 -5 -13 -11 -30 -14 -20 -4 -30 -13 -30 -24 0 -19 -84
-113 -101 -113 -5 0 -9 -4 -9 -10 0 -5 -7 -10 -15 -10 -13 0 -15 -98 -15 -820
0 -800 0 -820 19 -830 25 -13 241 -13 275 0 l26 10 0 764 0 764 200 4 c110 2
281 2 380 0 l180 -4 2 -766 3 -767 135 -6 c74 -3 145 -4 158 -1 l22 4 0 829
c0 718 -2 829 -15 829 -7 0 -18 6 -22 13 -4 7 -34 34 -65 59 -31 25 -54 48
-51 52 4 3 1 6 -5 6 -7 0 -12 9 -12 20 0 20 -7 20 -515 20 -288 0 -515 -4
-515 -9z m980 -50 c0 -5 38 -40 85 -77 l85 -67 0 -795 0 -795 -77 7 c-42 3
-91 6 -110 6 l-33 0 0 748 c0 699 -2 748 -18 770 l-18 23 -399 0 c-367 0 -401
-2 -412 -18 -10 -13 -13 -179 -13 -769 l0 -752 -22 -6 c-13 -3 -62 -6 -110 -6
l-88 0 0 778 1 777 82 93 81 92 483 0 c289 0 483 -4 483 -9z"/>
<path d="M9845 5058 c-3 -7 -4 -402 -3 -878 3 -857 3 -865 23 -865 13 0 21 8
23 23 l3 22 785 0 784 0 0 183 c0 129 -4 187 -12 195 -9 9 -153 12 -585 12
l-573 0 0 220 0 220 545 0 c478 0 545 2 545 15 0 10 10 15 30 15 l30 0 0 408
c0 383 -1 410 -18 425 -17 16 -87 17 -796 17 -612 0 -778 -3 -781 -12z m1544
-423 l0 -396 -574 3 -575 3 0 -278 c0 -239 2 -278 15 -283 8 -4 22 -1 29 5 10
9 114 12 378 11 199 -1 368 -1 373 0 6 1 92 2 193 1 l182 -1 0 -145 0 -144
-760 -1 -760 0 0 805 0 805 738 3 c405 1 742 3 749 5 9 1 12 -90 12 -393z"/>
<path d="M10240 4646 l0 -193 53 -7 c28 -3 229 -6 445 -6 355 0 393 2 399 16
4 10 -1 22 -11 30 -16 11 -17 30 -15 176 l3 163 -412 0 c-227 0 -412 3 -412 8
0 4 -11 7 -25 7 l-25 0 0 -194z m820 -11 l0 -145 -384 0 -385 0 0 140 -1 140
36 -4 c20 -3 45 -1 57 4 12 5 169 9 350 9 l327 1 0 -145z"/>
<path d="M16355 5008 c-3 -7 -4 -402 -3 -878 3 -857 3 -865 23 -865 13 0 21 8
23 23 l3 22 785 0 784 0 0 183 c0 129 -4 187 -12 195 -9 9 -153 12 -585 12
l-573 0 0 220 0 220 545 0 c478 0 545 2 545 15 0 10 10 15 30 15 l30 0 0 408
c0 383 -1 410 -18 425 -17 16 -87 17 -796 17 -612 0 -778 -3 -781 -12z m1544
-423 l0 -396 -574 3 -575 3 0 -278 c0 -239 2 -278 15 -283 8 -4 22 -1 29 5 10
9 114 12 378 11 199 -1 368 -1 373 0 6 1 92 2 193 1 l182 -1 0 -145 0 -144
-760 -1 -760 0 0 805 0 805 738 3 c405 1 742 3 749 5 9 1 12 -90 12 -393z"/>
<path d="M16750 4596 l0 -193 53 -7 c28 -3 229 -6 445 -6 355 0 393 2 399 16
4 10 -1 22 -11 30 -16 11 -17 30 -15 176 l3 163 -412 0 c-227 0 -412 3 -412 8
0 4 -11 7 -25 7 l-25 0 0 -194z m820 -11 l0 -145 -384 0 -385 0 0 140 -1 140
36 -4 c20 -3 45 -1 57 4 12 5 169 9 350 9 l327 1 0 -145z"/>
<path d="M5100 4956 c-219 -47 -402 -178 -519 -370 -248 -410 -95 -964 324
-1172 111 -55 174 -72 290 -80 360 -25 678 209 792 583 23 78 26 104 26 233 0
129 -3 155 -27 235 -50 164 -136 298 -259 403 -70 60 -212 134 -302 158 -84
22 -245 27 -325 10z m278 -52 c98 -19 240 -88 313 -151 192 -164 292 -400 275
-653 -7 -118 -26 -192 -77 -297 -146 -304 -466 -472 -779 -409 -196 40 -359
152 -471 323 -170 262 -170 605 0 866 165 251 457 378 739 321z"/>
<path d="M5154 4702 c-123 -44 -216 -166 -265 -347 -30 -113 -30 -307 0 -420
42 -157 121 -274 223 -330 46 -26 63 -30 128 -30 85 0 132 20 200 82 125 113
199 364 172 585 -41 330 -246 536 -458 460z m159 -48 c75 -25 132 -84 182
-188 73 -150 92 -310 56 -482 -32 -155 -105 -276 -199 -332 -67 -39 -157 -39
-224 1 -130 76 -212 267 -212 492 0 144 16 215 76 334 79 156 193 219 321 175z"/>
</g>
</svg>
